<svg width="23" height="23" viewBox="0 0 23 23" fill="none" xmlns="http://www.w3.org/2000/svg">
<path d="M20.6308 8.41927C20.5732 8.24946 20.467 8.10025 20.3256 7.99006C20.1841 7.87987 20.0134 7.81353 19.8347 7.79922L14.6055 7.38371L12.3427 2.3747C12.2706 2.21337 12.1534 2.07634 12.0052 1.98016C11.857 1.88397 11.6841 1.83274 11.5074 1.83264C11.3307 1.83254 11.1577 1.88359 11.0094 1.97961C10.8611 2.07563 10.7437 2.21253 10.6715 2.37378L8.40867 7.38371L3.17951 7.79922C3.00382 7.81314 2.83586 7.87738 2.69572 7.98425C2.55559 8.09113 2.44921 8.23612 2.38931 8.40187C2.32941 8.56762 2.31854 8.74712 2.35799 8.91889C2.39744 9.09066 2.48553 9.24743 2.61175 9.37044L6.47605 13.1375L5.10937 19.0555C5.06788 19.2347 5.08118 19.4221 5.14755 19.5936C5.21392 19.7651 5.3303 19.9127 5.48159 20.0172C5.63288 20.1217 5.81208 20.1783 5.99596 20.1797C6.17983 20.1811 6.35988 20.1272 6.51274 20.025L11.5071 16.6955L16.5014 20.025C16.6577 20.1288 16.8419 20.1822 17.0294 20.1781C17.2169 20.1739 17.3986 20.1125 17.5502 20.002C17.7017 19.8916 17.8158 19.7373 17.8771 19.5601C17.9383 19.3828 17.9438 19.1911 17.8929 19.0106L16.2152 13.1403L20.3758 9.39612C20.6482 9.15031 20.7482 8.7669 20.6308 8.41927Z" fill="#F3CD03"/>
</svg>
